<svg id="visual" viewBox="0 0 900 600" width="900" height="600" xmlns="http://www.w3.org/2000/svg" xmlns:xlink="http://www.w3.org/1999/xlink" version="1.1"><rect x="0" y="0" width="900" height="600" fill="#001220"></rect><path d="M0 297L18.8 283.7C37.7 270.3 75.3 243.7 112.8 223.3C150.3 203 187.7 189 225.2 200.7C262.7 212.3 300.3 249.7 337.8 268.7C375.3 287.7 412.7 288.3 450.2 274.2C487.7 260 525.3 231 562.8 214C600.3 197 637.7 192 675.2 214.2C712.7 236.3 750.3 285.7 787.8 302C825.3 318.3 862.7 301.7 881.3 293.3L900 285L900 601L881.3 601C862.7 601 825.3 601 787.8 601C750.3 601 712.7 601 675.2 601C637.7 601 600.3 601 562.8 601C525.3 601 487.7 601 450.2 601C412.7 601 375.3 601 337.8 601C300.3 601 262.7 601 225.2 601C187.7 601 150.3 601 112.8 601C75.3 601 37.7 601 18.8 601L0 601Z" fill="#fcaf3c"></path><path d="M0 352L18.8 341.2C37.7 330.3 75.3 308.7 112.8 315.7C150.3 322.7 187.7 358.3 225.2 348.8C262.7 339.3 300.3 284.7 337.8 278C375.3 271.3 412.7 312.7 450.2 320.8C487.7 329 525.3 304 562.8 305.7C600.3 307.3 637.7 335.7 675.2 348C712.7 360.3 750.3 356.7 787.8 348C825.3 339.3 862.7 325.7 881.3 318.8L900 312L900 601L881.3 601C862.7 601 825.3 601 787.8 601C750.3 601 712.7 601 675.2 601C637.7 601 600.3 601 562.8 601C525.3 601 487.7 601 450.2 601C412.7 601 375.3 601 337.8 601C300.3 601 262.7 601 225.2 601C187.7 601 150.3 601 112.8 601C75.3 601 37.7 601 18.8 601L0 601Z" fill="#fd8443"></path><path d="M0 431L18.8 434.8C37.7 438.7 75.3 446.3 112.8 425.8C150.3 405.3 187.7 356.7 225.2 333.2C262.7 309.7 300.3 311.3 337.8 334.7C375.3 358 412.7 403 450.2 400.3C487.7 397.7 525.3 347.3 562.8 334C600.3 320.7 637.7 344.3 675.2 345.7C712.7 347 750.3 326 787.8 323.7C825.3 321.3 862.7 337.7 881.3 345.8L900 354L900 601L881.3 601C862.7 601 825.3 601 787.8 601C750.3 601 712.7 601 675.2 601C637.7 601 600.3 601 562.8 601C525.3 601 487.7 601 450.2 601C412.7 601 375.3 601 337.8 601C300.3 601 262.7 601 225.2 601C187.7 601 150.3 601 112.8 601C75.3 601 37.7 601 18.8 601L0 601Z" fill="#f25954"></path><path d="M0 414L18.8 416C37.7 418 75.3 422 112.8 427.7C150.3 433.3 187.7 440.7 225.2 431C262.7 421.3 300.3 394.7 337.8 377.3C375.3 360 412.7 352 450.2 355.7C487.7 359.3 525.3 374.7 562.8 375.5C600.3 376.3 637.7 362.7 675.2 370.3C712.7 378 750.3 407 787.8 409.3C825.3 411.7 862.7 387.3 881.3 375.2L900 363L900 601L881.3 601C862.7 601 825.3 601 787.8 601C750.3 601 712.7 601 675.2 601C637.7 601 600.3 601 562.8 601C525.3 601 487.7 601 450.2 601C412.7 601 375.3 601 337.8 601C300.3 601 262.7 601 225.2 601C187.7 601 150.3 601 112.8 601C75.3 601 37.7 601 18.8 601L0 601Z" fill="#da3167"></path><path d="M0 392L18.8 407.8C37.7 423.7 75.3 455.3 112.8 456.7C150.3 458 187.7 429 225.2 432.3C262.7 435.7 300.3 471.3 337.8 477C375.3 482.7 412.7 458.3 450.2 449.3C487.7 440.3 525.3 446.7 562.8 454.8C600.3 463 637.7 473 675.2 476.3C712.7 479.7 750.3 476.3 787.8 464.8C825.3 453.3 862.7 433.7 881.3 423.8L900 414L900 601L881.3 601C862.7 601 825.3 601 787.8 601C750.3 601 712.7 601 675.2 601C637.7 601 600.3 601 562.8 601C525.3 601 487.7 601 450.2 601C412.7 601 375.3 601 337.8 601C300.3 601 262.7 601 225.2 601C187.7 601 150.3 601 112.8 601C75.3 601 37.7 601 18.8 601L0 601Z" fill="#b31479"></path><path d="M0 468L18.8 466.7C37.7 465.3 75.3 462.7 112.8 461.8C150.3 461 187.7 462 225.2 463.8C262.7 465.7 300.3 468.3 337.8 477.2C375.3 486 412.7 501 450.2 505.8C487.7 510.7 525.3 505.3 562.8 498.5C600.3 491.7 637.7 483.3 675.2 489.5C712.7 495.7 750.3 516.3 787.8 516.5C825.3 516.7 862.7 496.3 881.3 486.2L900 476L900 601L881.3 601C862.7 601 825.3 601 787.8 601C750.3 601 712.7 601 675.2 601C637.7 601 600.3 601 562.8 601C525.3 601 487.7 601 450.2 601C412.7 601 375.3 601 337.8 601C300.3 601 262.7 601 225.2 601C187.7 601 150.3 601 112.8 601C75.3 601 37.7 601 18.8 601L0 601Z" fill="#7e1785"></path><path d="M0 512L18.8 517.3C37.7 522.7 75.3 533.3 112.8 533.8C150.3 534.3 187.7 524.7 225.2 520C262.7 515.3 300.3 515.7 337.8 513C375.3 510.3 412.7 504.7 450.2 504.3C487.7 504 525.3 509 562.8 512.8C600.3 516.7 637.7 519.3 675.2 524.7C712.7 530 750.3 538 787.8 539.7C825.3 541.3 862.7 536.7 881.3 534.3L900 532L900 601L881.3 601C862.7 601 825.3 601 787.8 601C750.3 601 712.7 601 675.2 601C637.7 601 600.3 601 562.8 601C525.3 601 487.7 601 450.2 601C412.7 601 375.3 601 337.8 601C300.3 601 262.7 601 225.2 601C187.7 601 150.3 601 112.8 601C75.3 601 37.7 601 18.8 601L0 601Z" fill="#2f2288"></path></svg>