<svg id="visual" viewBox="0 0 900 600" width="900" height="600" xmlns="http://www.w3.org/2000/svg" xmlns:xlink="http://www.w3.org/1999/xlink" version="1.1"><rect x="0" y="0" width="900" height="600" fill="#05121c"></rect><defs><linearGradient id="grad1_0" x1="33.3%" y1="100%" x2="100%" y2="0%"><stop offset="20%" stop-color="#fcaf3c" stop-opacity="1"></stop><stop offset="80%" stop-color="#fcaf3c" stop-opacity="1"></stop></linearGradient></defs><defs><linearGradient id="grad1_1" x1="33.3%" y1="100%" x2="100%" y2="0%"><stop offset="20%" stop-color="#fcaf3c" stop-opacity="1"></stop><stop offset="80%" stop-color="#94466f" stop-opacity="1"></stop></linearGradient></defs><defs><linearGradient id="grad1_2" x1="33.3%" y1="100%" x2="100%" y2="0%"><stop offset="20%" stop-color="#05121c" stop-opacity="1"></stop><stop offset="80%" stop-color="#94466f" stop-opacity="1"></stop></linearGradient></defs><defs><linearGradient id="grad2_0" x1="0%" y1="100%" x2="66.7%" y2="0%"><stop offset="20%" stop-color="#fcaf3c" stop-opacity="1"></stop><stop offset="80%" stop-color="#fcaf3c" stop-opacity="1"></stop></linearGradient></defs><defs><linearGradient id="grad2_1" x1="0%" y1="100%" x2="66.7%" y2="0%"><stop offset="20%" stop-color="#94466f" stop-opacity="1"></stop><stop offset="80%" stop-color="#fcaf3c" stop-opacity="1"></stop></linearGradient></defs><defs><linearGradient id="grad2_2" x1="0%" y1="100%" x2="66.7%" y2="0%"><stop offset="20%" stop-color="#94466f" stop-opacity="1"></stop><stop offset="80%" stop-color="#05121c" stop-opacity="1"></stop></linearGradient></defs><g transform="translate(900, 600)"><path d="M-405.6 0C-403.5 -57 -401.4 -114 -374.7 -155.2C-348.1 -196.4 -296.8 -221.9 -258.1 -258.1C-219.4 -294.3 -193.2 -341.3 -152.3 -367.7C-111.4 -394.1 -55.7 -399.9 0 -405.6L0 0Z" fill="#3b3154"></path><path d="M-270.4 0C-269 -38 -267.6 -76 -249.8 -103.5C-232 -131 -197.9 -147.9 -172.1 -172.1C-146.3 -196.2 -128.8 -227.5 -101.5 -245.1C-74.3 -262.7 -37.1 -266.6 0 -270.4L0 0Z" fill="#e26960"></path><path d="M-135.2 0C-134.5 -19 -133.8 -38 -124.9 -51.7C-116 -65.5 -98.9 -74 -86 -86C-73.1 -98.1 -64.4 -113.8 -50.8 -122.6C-37.1 -131.4 -18.6 -133.3 0 -135.2L0 0Z" fill="#fcaf3c"></path></g><g transform="translate(0, 0)"><path d="M405.6 0C388.3 47.4 370.9 94.8 354.8 147C338.6 199.1 323.7 256.2 286.8 286.8C249.9 317.5 191.1 321.8 139.7 337.2C88.2 352.6 44.1 379.1 0 405.6L0 0Z" fill="#3b3154"></path><path d="M270.4 0C258.8 31.6 247.3 63.2 236.5 98C225.8 132.8 215.8 170.8 191.2 191.2C166.6 211.7 127.4 214.5 93.1 224.8C58.8 235.1 29.4 252.8 0 270.4L0 0Z" fill="#e26960"></path><path d="M135.2 0C129.4 15.8 123.6 31.6 118.3 49C112.9 66.4 107.9 85.4 95.6 95.6C83.3 105.8 63.7 107.3 46.6 112.4C29.4 117.5 14.7 126.4 0 135.2L0 0Z" fill="#fcaf3c"></path></g></svg>